<?xml version="1.0" encoding="utf-8"?>
<!-- Generator: Adobe Illustrator 25.4.1, SVG Export Plug-In . SVG Version: 6.00 Build 0)  -->
<svg version="1.1" id="Layer_1" xmlns="http://www.w3.org/2000/svg" xmlns:xlink="http://www.w3.org/1999/xlink" x="0px" y="0px"
	 width="512px" height="512px" viewBox="0 0 512 512" enable-background="new 0 0 512 512" xml:space="preserve">
<rect fill="#311B51" stroke="#000000" stroke-miterlimit="10" width="512" height="512"/>
<g>
	<linearGradient id="SVGID_1_" gradientUnits="userSpaceOnUse" x1="256" y1="72.2894" x2="256" y2="466.9259">
		<stop  offset="0" style="stop-color:#EBE958"/>
		<stop  offset="1" style="stop-color:#EF426C"/>
	</linearGradient>
	<path fill="url(#SVGID_1_)" d="M61.493,293.293c1.678,8.805,3.941,17.402,6.744,25.752h375.527
		c2.803-8.35,5.065-16.947,6.744-25.752H61.493z"/>
	
		<linearGradient id="SVGID_00000080903068105388809740000002643059266285499038_" gradientUnits="userSpaceOnUse" x1="256" y1="72.2889" x2="256" y2="466.9261">
		<stop  offset="0" style="stop-color:#EBE958"/>
		<stop  offset="1" style="stop-color:#EF426C"/>
	</linearGradient>
	<path fill="url(#SVGID_00000080903068105388809740000002643059266285499038_)" d="M89.394,363.049
		c4.841,7.517,10.177,14.684,15.962,21.457h301.289c5.784-6.773,11.121-13.94,15.962-21.457H89.394z"/>
	
		<linearGradient id="SVGID_00000129924329614506772650000002972891177260110978_" gradientUnits="userSpaceOnUse" x1="256" y1="72.2884" x2="256" y2="466.9259">
		<stop  offset="0" style="stop-color:#EBE958"/>
		<stop  offset="1" style="stop-color:#EF426C"/>
	</linearGradient>
	<path fill="url(#SVGID_00000129924329614506772650000002972891177260110978_)" d="M370.953,417.237
		c8.192-5.85,15.919-12.308,23.116-19.31H117.931c7.197,7.001,14.924,13.46,23.116,19.31H370.953z"/>
	
		<linearGradient id="SVGID_00000005981112066204883800000011986407232899629750_" gradientUnits="userSpaceOnUse" x1="256" y1="72.2903" x2="256" y2="466.9285">
		<stop  offset="0" style="stop-color:#EBE958"/>
		<stop  offset="1" style="stop-color:#EF426C"/>
	</linearGradient>
	<path fill="url(#SVGID_00000005981112066204883800000011986407232899629750_)" d="M71.553,328.171
		c3.19,8.145,6.905,16.026,11.101,23.604h346.692c4.196-7.578,7.911-15.459,11.101-23.604H71.553z"/>
	
		<linearGradient id="SVGID_00000095338102998456945190000000987336841176478891_" gradientUnits="userSpaceOnUse" x1="256" y1="72.2891" x2="256" y2="466.9271">
		<stop  offset="0" style="stop-color:#EBE958"/>
		<stop  offset="1" style="stop-color:#EF426C"/>
	</linearGradient>
	<path fill="url(#SVGID_00000095338102998456945190000000987336841176478891_)" d="M166.776,432.805
		C193.589,446.36,223.902,454,256,454s62.411-7.64,89.224-21.195H166.776z"/>
	
		<linearGradient id="SVGID_00000087376068566289686180000010625192863361373886_" gradientUnits="userSpaceOnUse" x1="256" y1="72.2894" x2="256" y2="466.9276">
		<stop  offset="0" style="stop-color:#EBE958"/>
		<stop  offset="1" style="stop-color:#EF426C"/>
	</linearGradient>
	<path fill="url(#SVGID_00000087376068566289686180000010625192863361373886_)" d="M454,253.584C452.706,145.345,364.554,58,256,58
		S59.294,145.345,58,253.584H454z"/>
	
		<linearGradient id="SVGID_00000101065256141589747120000013302779755717881995_" gradientUnits="userSpaceOnUse" x1="256" y1="72.2896" x2="256" y2="466.9262">
		<stop  offset="0" style="stop-color:#EBE958"/>
		<stop  offset="1" style="stop-color:#EF426C"/>
	</linearGradient>
	<path fill="url(#SVGID_00000101065256141589747120000013302779755717881995_)" d="M58,258.416
		c0.113,9.475,0.892,18.789,2.292,27.899h391.416c1.4-9.11,2.179-18.424,2.292-27.899H58z"/>
</g>
</svg>
