<?xml version="1.0" standalone="no"?>
<!DOCTYPE svg PUBLIC "-//W3C//DTD SVG 20010904//EN"
 "http://www.w3.org/TR/2001/REC-SVG-20010904/DTD/svg10.dtd">
<svg version="1.0" xmlns="http://www.w3.org/2000/svg"
 width="700.000000pt" height="700.000000pt" viewBox="0 0 700.000000 700.000000"
 preserveAspectRatio="xMidYMid meet">
<metadata>
Created by potrace 1.14, written by Peter Selinger 2001-2017
</metadata>
<g transform="translate(0.000000,700.000000) scale(0.100000,-0.100000)"
fill="#000000" stroke="none">
<path d="M0 3500 l0 -3500 3500 0 3500 0 0 3500 0 3500 -3500 0 -3500 0 0
-3500z m3884 2680 c878 -128 1631 -669 2030 -1459 169 -335 258 -661 285
-1041 6 -74 7 -138 2 -143 -4 -4 -1222 -6 -2707 -5 l-2699 3 3 90 c23 643 295
1276 751 1748 207 214 412 371 666 510 314 172 698 286 1075 318 146 12 435 2
594 -21z m2318 -2795 c-1 -44 -8 -128 -14 -187 l-11 -108 -2677 0 -2678 0 -10
113 c-17 168 -21 254 -15 261 4 3 1222 5 2707 4 l2701 -3 -3 -80z m-58 -462
c-8 -38 -28 -116 -45 -175 l-32 -108 -2567 0 -2567 0 -32 108 c-17 59 -37 137
-45 175 l-14 67 2658 0 2658 0 -14 -67z m-158 -490 c-18 -43 -52 -115 -75
-160 l-41 -83 -2370 0 -2370 0 -41 83 c-23 45 -57 117 -75 160 l-33 77 2519 0
2519 0 -33 -77z m-263 -472 c-26 -38 -73 -101 -103 -140 l-55 -71 -2065 0
-2065 0 -55 71 c-30 39 -77 102 -103 140 l-48 69 2271 0 2271 0 -48 -69z
m-358 -420 c-54 -51 -156 -138 -221 -186 l-73 -55 -1571 0 -1572 0 -61 47
c-65 48 -247 203 -247 209 0 2 847 4 1882 4 1845 0 1882 0 1863 -19z m-763
-507 c-51 -25 -160 -67 -242 -94 l-149 -50 -708 0 -709 0 -99 31 c-115 36
-276 99 -344 134 l-46 24 1195 0 1195 -1 -93 -44z"/>
</g>
</svg>
